<?xml version="1.0" encoding="UTF-8"?>
<svg width="603px" height="16px" viewBox="0 0 603 16" version="1.1" xmlns="http://www.w3.org/2000/svg" xmlns:xlink="http://www.w3.org/1999/xlink">
    <!-- Generator: Sketch 61.2 (89653) - https://sketch.com -->
    <title>Top Border</title>
    <desc>Created with Sketch.</desc>
    <g id="Page-5" stroke="none" stroke-width="1" fill="none" fill-rule="evenodd">
        <g id="Top-Border" transform="translate(301.000000, 8.000000) rotate(180.000000) translate(-301.000000, -8.000000) translate(-1.000000, 0.000000)">
            <path d="M468.41,-27.68 L468.41,24.514 L453.41,44.5 L453.41,-7.695 L468.41,-27.68 Z" id="Combined-Shape" fill="#586C83" transform="translate(460.910000, 8.410000) rotate(90.000000) translate(-460.910000, -8.410000) "></path>
            <path d="M574.41,-27.68 L574.41,24.514 L559.41,44.5 L559.41,-7.695 L574.41,-27.68 Z" id="Combined-Shape" fill="#FF876D" transform="translate(566.910000, 8.410000) rotate(90.000000) translate(-566.910000, -8.410000) "></path>
            <path d="M362.282,-27.68 L362.282,24.514 L347.282,44.5 L347.282,-7.695 L362.282,-27.68 Z" id="Combined-Shape" fill="#FF876D" transform="translate(354.782000, 8.410000) rotate(90.000000) translate(-354.782000, -8.410000) "></path>
            <path d="M44.282,-27.68 L44.282,24.514 L29.282,44.5 L29.282,-7.695 L44.282,-27.68 Z" id="Combined-Shape" fill="#586C83" transform="translate(36.782000, 8.410000) rotate(90.000000) translate(-36.782000, -8.410000) "></path>
            <path d="M150.41,-27.68 L150.41,24.514 L135.41,44.5 L135.41,-7.695 L150.41,-27.68 Z" id="Combined-Shape" fill="#FF876D" transform="translate(142.910000, 8.410000) rotate(90.000000) translate(-142.910000, -8.410000) "></path>
            <path d="M256.41,-27.68 L256.41,24.514 L241.41,44.5 L241.41,-7.695 L256.41,-27.68 Z" id="Combined-Shape" fill="#586C83" transform="translate(248.910000, 8.410000) rotate(90.000000) translate(-248.910000, -8.410000) "></path>
        </g>
    </g>
</svg>