<?xml version="1.0" encoding="UTF-8"?>
<svg width="485px" height="447px" viewBox="0 0 485 447" version="1.1" xmlns="http://www.w3.org/2000/svg" xmlns:xlink="http://www.w3.org/1999/xlink">
    <!-- Generator: Sketch 61.2 (89653) - https://sketch.com -->
    <title>undraw_message_sent_1030</title>
    <desc>Created with Sketch.</desc>
    <g id="Page-1" stroke="none" stroke-width="1" fill="none" fill-rule="evenodd">
        <g id="undraw_message_sent_1030" transform="translate(2.000000, 2.000000)" fill-rule="nonzero">
            <path d="M433.37107,442.99156 L48.53731,442.99156 C22.2578785,442.99156 0.95419,421.687872 0.95419,395.40844 L0.95419,219.09669 C0.95419,213.922289 3.08116782,208.975382 6.83651,205.41563 L210.76033,12.11282 C227.690763,-3.93581009 254.217627,-3.93581009 271.14806,12.11282 L465.57863,196.41678 C475.394584,205.721494 480.95421,218.652044 480.95421,232.17723 L480.95421,395.40844 C480.95421,408.028272 475.941,420.131227 467.01743,429.054794 C458.093859,437.97836 445.990902,442.99156 433.37107,442.99156 L433.37107,442.99156 Z" id="Path" stroke="#1A535C" stroke-width="3" fill="#FFFFFF"></path>
            <path d="M0.95419,221.99156 L476.95419,221.99156 L476.95419,414.25928 C476.95419,430.12768 464.09031,442.99156 448.22191,442.99156 L29.68647,442.99156 C13.8180699,442.99156 0.95419,430.12768 0.95419,414.25928 L0.95419,221.99156 Z" id="Path" fill="#000000" opacity="0.1"></path>
            <rect id="Rectangle" stroke="#1A535C" stroke-width="3" fill="#FFFFFF" x="63.45419" y="70.49156" width="354" height="354" rx="26.1811"></rect>
            <polygon id="Path" fill="#000000" opacity="0.1" points="417.454 229.942 417.454 424.492 63.454 424.492 63.454 229.942 240.454 315.492"></polygon>
            <path d="M240.45419,326.49156 L13.66039,216.87456 C10.8088159,215.496302 7.44885525,215.681388 4.76592044,217.36452 C2.08298564,219.047651 0.45419,221.992244 0.45419,225.15943 L0.45419,413.75927 C0.45419,421.379546 3.48132841,428.687717 8.86967644,434.076066 C14.2580245,439.464416 21.5661938,442.49156 29.18647,442.49156 L451.72191,442.49156 C459.342186,442.49156 466.650356,439.464416 472.038704,434.076066 C477.427052,428.687717 480.45419,421.379546 480.45419,413.75927 L480.45419,228.39027 C480.45419,224.525458 478.466638,220.932266 475.192743,218.878396 C471.918848,216.824526 467.818798,216.598673 464.33912,218.28052 L240.45419,326.49156 Z" id="Path" stroke="#1A525B" stroke-width="3" fill="#FFFFFF"></path>
            <path d="M160.495456,420.09474 L31.0551465,420.09474 C28.8927788,420.097516 26.8934779,418.945503 25.8114905,417.0733 C24.7295032,415.201096 24.7295032,412.893644 25.8114905,411.02144 C26.8934779,409.149237 28.8927788,407.997224 31.0551465,408 L160.495456,408 C162.657824,407.997224 164.657125,409.149237 165.739112,411.02144 C166.8211,412.893644 166.8211,415.201096 165.739112,417.0733 C164.657125,418.945503 162.657824,420.097516 160.495456,420.09474 Z" id="Path" fill="#43CBC0"></path>
            <path d="M77.4954565,394.09474 L31.0551465,394.09474 C28.8927788,394.097516 26.8934779,392.945503 25.8114905,391.0733 C24.7295032,389.201096 24.7295032,386.893644 25.8114905,385.02144 C26.8934779,383.149237 28.8927788,381.997224 31.0551465,382 L77.4954565,382 C79.6578242,381.997224 81.6571251,383.149237 82.7391124,385.02144 C83.8210998,386.893644 83.8210998,389.201096 82.7391124,391.0733 C81.6571251,392.945503 79.6578242,394.097516 77.4954565,394.09474 L77.4954565,394.09474 Z" id="Path" fill="#43CBC0"></path>
            <path d="M224.353475,256.020655 L224.138547,255.8598 L178.878633,221.318767 C173.176186,216.963596 170.237869,209.906827 171.170517,202.806677 C172.103165,195.706527 176.765088,189.641677 183.400184,186.896699 C190.035279,184.151721 197.635519,185.143641 203.337966,189.498813 L236.371674,215.957575 L301.93216,121.847455 C305.177077,117.628925 309.970363,114.868128 315.257472,114.172452 C320.544582,113.476775 325.892388,114.90321 330.124348,118.137934 L329.693619,118.720891 L330.135533,118.146412 C338.936631,124.888819 340.601455,137.460145 333.857036,146.248013 L252.369195,252.177851 C248.549181,257.125536 242.635075,260.017269 236.371674,260.001353 C232.038638,260.008011 227.820473,258.611362 224.353475,256.020655 Z" id="Path" fill="#43CBC0"></path>
        </g>
    </g>
</svg>