<?xml version="1.0" encoding="UTF-8"?>
<svg width="485px" height="447px" viewBox="0 0 485 447" version="1.1" xmlns="http://www.w3.org/2000/svg" xmlns:xlink="http://www.w3.org/1999/xlink">
    <!-- Generator: Sketch 61.2 (89653) - https://sketch.com -->
    <title>message_success</title>
    <desc>Created with Sketch.</desc>
    <g id="Page-1" stroke="none" stroke-width="1" fill="none" fill-rule="evenodd">
        <g id="message_success" transform="translate(2.000000, 2.000000)">
            <path d="M433.37107,442.99156 L48.53731,442.99156 C22.2578785,442.99156 0.95419,421.687872 0.95419,395.40844 L0.95419,219.09669 C0.95419,213.922289 3.08116782,208.975382 6.83651,205.41563 L210.76033,12.11282 C227.690763,-3.93581009 254.217627,-3.93581009 271.14806,12.11282 L465.57863,196.41678 C475.394584,205.721494 480.95421,218.652044 480.95421,232.17723 L480.95421,395.40844 C480.95421,408.028272 475.941,420.131227 467.01743,429.054794 C458.093859,437.97836 445.990902,442.99156 433.37107,442.99156 L433.37107,442.99156 Z" id="Path" stroke="#1A535C" stroke-width="3" fill="#FFFFFF" fill-rule="nonzero"></path>
            <path d="M0.95419,221.99156 L476.95419,221.99156 L476.95419,414.25928 C476.95419,430.12768 464.09031,442.99156 448.22191,442.99156 L29.68647,442.99156 C13.8180699,442.99156 0.95419,430.12768 0.95419,414.25928 L0.95419,221.99156 Z" id="Path" fill="#000000" fill-rule="nonzero" opacity="0.1"></path>
            <rect id="Rectangle" stroke="#1A535C" stroke-width="3" fill="#FFFFFF" fill-rule="nonzero" x="63.45419" y="70.49156" width="354" height="354" rx="26.1811"></rect>
            <polygon id="Path-5" fill="#000000" fill-rule="nonzero" opacity="0.1" points="417.454 229.942 417.454 424.492 63.454 424.492 63.454 229.942 240.454 315.492"></polygon>
            <path d="M239.823538,93 L243.018059,93.2105321 L245.67204,93.8644577 L247.713854,94.9655466 L249.651271,96.6103652 L251.500285,98.8580518 L334.240951,237.857068 L336.187446,241.011086 L337.457278,244.622346 L337.941727,247.944912 L338,251.77831 L337.015446,255.780257 L335.082867,258.874634 L333.123326,261.423606 L330.858503,263.447917 L328.047479,264.606148 L323.973582,265.957129 L318.849899,266.283854 L162.417113,266.077274 L156.977712,265.880202 L153.36913,264.901756 L150.311098,262.963016 L147.740994,261.691555 L145.610112,259.803812 L143.705365,256.12859 L143,252.212215 L143.064361,248.092716 L143.711453,243.89024 L145.92931,238.77328 L209.13734,130.569462 L213.990531,121.523161 L218.593235,113.873652 L222.283573,107.438557 L225.405967,101.907573 L228.576955,97.9280995 L232.012569,95.1578536 L234.258963,93.8682414 L236.921424,93.3435802 L239.823538,93 Z M241.579154,212.057529 C233.61474,212.057529 227.158307,218.376207 227.158307,226.170692 C227.158307,233.965176 233.61474,240.283854 241.579154,240.283854 C249.543567,240.283854 256,233.965176 256,226.170692 C256,218.376207 249.543567,212.057529 241.579154,212.057529 Z M241.308228,137.283854 C239.841082,137.365422 238.356716,137.5474 236.85513,137.829786 L236.85513,137.829786 L234.046474,138.757322 L233.773996,138.916766 C232.745382,139.525504 231.409925,140.399544 230.360359,141.542855 C229.835801,142.174316 229.463433,142.662478 229.243257,143.007341 C229.058107,143.297342 228.822484,143.761475 228.53639,144.399741 C227.811411,145.671779 227.264147,147.153604 227.058454,149.038644 C227.004666,149.921192 226.974943,150.584858 226.969283,151.029643 C226.961953,151.605669 226.972192,152.473219 227,153.632294 L227,153.632294 L227.168745,155.9769 L227.529908,158.976282 L228.491022,165.373423 L229.341664,170.850795 L230.552751,177.269885 L231.938956,184.126272 L232.741613,189.40043 L233.62628,194.561882 L234.344309,199.012087 L234.963212,203.62525 L248.755486,203.486199 L249.670689,196.453988 L250.871936,188.669487 L251.802964,182.323819 L252.52921,176.689707 L253.570946,170.530724 L254.500588,164.108035 L255.380847,157.920512 L255.427063,157.573471 C255.574497,156.441462 255.655746,155.557382 255.67081,154.921231 C255.687381,154.221465 255.67537,153.158841 255.634777,151.733358 C255.548622,150.344246 255.447331,149.306929 255.330904,148.621406 C255.214477,147.935882 255.013608,147.194085 254.728298,146.396015 C254.142701,145.184402 253.681545,144.303599 253.344831,143.753606 C253.008116,143.203613 252.604671,142.672167 252.134496,142.15927 C251.331642,141.238011 250.705681,140.576951 250.256611,140.176091 C249.807541,139.775231 249.179497,139.316909 248.372479,138.801124 C247.435344,138.384255 246.724041,138.103697 246.23857,137.959451 C245.753099,137.815205 244.930718,137.634905 243.771427,137.418553 L243.771427,137.418553 Z" id="Combined-Shape" fill="#E04006"></path>
            <path d="M240.45419,326.49156 L13.66039,216.87456 C10.8088159,215.496302 7.44885525,215.681388 4.76592044,217.36452 C2.08298564,219.047651 0.45419,221.992244 0.45419,225.15943 L0.45419,413.75927 C0.45419,421.379546 3.48132841,428.687717 8.86967644,434.076066 C14.2580245,439.464416 21.5661938,442.49156 29.18647,442.49156 L451.72191,442.49156 C459.342186,442.49156 466.650356,439.464416 472.038704,434.076066 C477.427052,428.687717 480.45419,421.379546 480.45419,413.75927 L480.45419,228.39027 C480.45419,224.525458 478.466638,220.932266 475.192743,218.878396 C471.918848,216.824526 467.818798,216.598673 464.33912,218.28052 L240.45419,326.49156 Z" id="Path" stroke="#1A525B" stroke-width="3" fill="#FFFFFF" fill-rule="nonzero"></path>
            <path d="M160.495456,420.094745 L31.0551465,420.094745 C28.8927788,420.097516 26.8934779,418.945503 25.8114905,417.0733 C24.7295032,415.201096 24.7295032,412.893644 25.8114905,411.02144 C26.8934779,409.149237 28.8927788,407.997224 31.0551465,407.999995 L160.495456,407.999995 C162.657824,407.997224 164.657125,409.149237 165.739112,411.02144 C166.8211,412.893644 166.8211,415.201096 165.739112,417.0733 C164.657125,418.945503 162.657824,420.097516 160.495456,420.094745 Z" id="Path" fill="#E04006" fill-rule="nonzero"></path>
            <path d="M77.4954565,394.094745 L31.0551465,394.094745 C28.8927788,394.097516 26.8934779,392.945503 25.8114905,391.0733 C24.7295032,389.201096 24.7295032,386.893644 25.8114905,385.02144 C26.8934779,383.149237 28.8927788,381.997224 31.0551465,381.999995 L77.4954565,381.999995 C79.6578242,381.997224 81.6571251,383.149237 82.7391124,385.02144 C83.8210998,386.893644 83.8210998,389.201096 82.7391124,391.0733 C81.6571251,392.945503 79.6578242,394.097516 77.4954565,394.094745 L77.4954565,394.094745 Z" id="Path" fill="#E04006" fill-rule="nonzero"></path>
        </g>
    </g>
</svg>