<?xml version="1.0" encoding="UTF-8"?>
<svg width="34px" height="16px" viewBox="0 0 34 16" version="1.1" xmlns="http://www.w3.org/2000/svg" xmlns:xlink="http://www.w3.org/1999/xlink">
    <!-- Generator: Sketch 61.2 (89653) - https://sketch.com -->
    <title>Path</title>
    <desc>Created with Sketch.</desc>
    <g id="Page-5" stroke="none" stroke-width="1" fill="none" fill-rule="evenodd">
        <g id="Web---Home" transform="translate(-255.000000, -310.000000)" fill="#FF876D">
            <path d="M287.739211,310 C287.877076,310 288.008824,310.056924 288.103311,310.157318 C288.271541,310.336062 288.282657,310.605946 288.14182,310.796636 L288.081894,310.8641 L272.342682,325.677475 C272.174223,325.836025 271.923237,325.855844 271.734146,325.736932 L271.657318,325.677475 L255.918106,310.8641 C255.817713,310.769612 255.760789,310.637865 255.760789,310.5 C255.760789,310.25454 255.937664,310.050392 256.170913,310.008056 L256.260789,310 L261.177489,310 C261.304863,310 261.427435,310.048612 261.520185,310.135913 L271.657313,319.677448 C271.849838,319.858661 272.150165,319.858665 272.342695,319.677457 L282.480394,310.135903 C282.573143,310.048608 282.695711,310 282.82308,310 L287.739211,310 L287.739211,310 Z" id="Path"></path>
        </g>
    </g>
</svg>