<?xml version="1.0" encoding="UTF-8"?>
<svg width="609px" height="16px" viewBox="0 0 609 16" version="1.1" xmlns="http://www.w3.org/2000/svg" xmlns:xlink="http://www.w3.org/1999/xlink">
    <!-- Generator: Sketch 61.2 (89653) - https://sketch.com -->
    <title>Top Border</title>
    <desc>Created with Sketch.</desc>
    <g id="Page-5" stroke="none" stroke-width="1" fill="none" fill-rule="evenodd">
        <g id="Top-Border" transform="translate(304.500000, 8.000000) rotate(180.000000) translate(-304.500000, -8.000000) ">
            <path d="M473.41,-27.68 L473.41,24.514 L458.41,44.5 L458.41,-7.695 L473.41,-27.68 Z" id="Combined-Shape" fill="#586C83" transform="translate(465.910000, 8.410000) rotate(90.000000) translate(-465.910000, -8.410000) "></path>
            <path d="M579.801,-28.071 L579.801,24.905 L564.801,44.891 L564.801,-28.071 L579.801,-28.071 Z" id="Combined-Shape" fill="#FF876D" transform="translate(572.301000, 8.410000) rotate(90.000000) translate(-572.301000, -8.410000) "></path>
            <path d="M367.282,-27.68 L367.282,24.514 L352.282,44.5 L352.282,-7.695 L367.282,-27.68 Z" id="Combined-Shape" fill="#FF876D" transform="translate(359.782000, 8.410000) rotate(90.000000) translate(-359.782000, -8.410000) "></path>
            <path d="M46.763,-30.199 L46.763,47.019 L31.763,47.019 L31.763,-10.214 L46.763,-30.199 Z" id="Combined-Shape" fill="#586C83" transform="translate(39.263000, 8.410000) rotate(90.000000) translate(-39.263000, -8.410000) "></path>
            <path d="M155.41,-27.68 L155.41,24.514 L140.41,44.5 L140.41,-7.695 L155.41,-27.68 Z" id="Combined-Shape" fill="#FF876D" transform="translate(147.910000, 8.410000) rotate(90.000000) translate(-147.910000, -8.410000) "></path>
            <path d="M261.41,-27.68 L261.41,24.514 L246.41,44.5 L246.41,-7.695 L261.41,-27.68 Z" id="Combined-Shape" fill="#586C83" transform="translate(253.910000, 8.410000) rotate(90.000000) translate(-253.910000, -8.410000) "></path>
        </g>
    </g>
</svg>